<svg width="229" height="42" viewBox="0 0 229 42" fill="none" xmlns="http://www.w3.org/2000/svg">
<path d="M25.2 25.2L14.2881 6.29998L36.1119 6.29998L25.2 25.2Z" fill="#F06A6A"/>
<path d="M12.6 16.8L23.5119 35.7H1.68808L12.6 16.8Z" fill="#F06A6A"/>
<path d="M37.8 16.8L48.7119 35.7H26.8881L37.8 16.8Z" fill="#F06A6A"/>
<path d="M67.464 29.24C66.152 29.24 64.896 29.056 63.696 28.688C62.496 28.304 61.544 27.816 60.84 27.224L61.92 24.8C62.592 25.328 63.424 25.768 64.416 26.12C65.408 26.472 66.424 26.648 67.464 26.648C68.344 26.648 69.056 26.552 69.6 26.36C70.144 26.168 70.544 25.912 70.8 25.592C71.056 25.256 71.184 24.88 71.184 24.464C71.184 23.952 71 23.544 70.632 23.24C70.264 22.92 69.784 22.672 69.192 22.496C68.616 22.304 67.968 22.128 67.248 21.968C66.544 21.808 65.832 21.624 65.112 21.416C64.408 21.192 63.76 20.912 63.168 20.576C62.592 20.224 62.12 19.76 61.752 19.184C61.384 18.608 61.2 17.872 61.2 16.976C61.2 16.064 61.44 15.232 61.92 14.48C62.416 13.712 63.16 13.104 64.152 12.656C65.16 12.192 66.432 11.96 67.968 11.96C68.976 11.96 69.976 12.088 70.968 12.344C71.96 12.6 72.824 12.968 73.56 13.448L72.576 15.872C71.824 15.424 71.048 15.096 70.248 14.888C69.448 14.664 68.68 14.552 67.944 14.552C67.08 14.552 66.376 14.656 65.832 14.864C65.304 15.072 64.912 15.344 64.656 15.68C64.416 16.016 64.296 16.4 64.296 16.832C64.296 17.344 64.472 17.76 64.824 18.08C65.192 18.384 65.664 18.624 66.24 18.8C66.832 18.976 67.488 19.152 68.208 19.328C68.928 19.488 69.64 19.672 70.344 19.88C71.064 20.088 71.712 20.36 72.288 20.696C72.88 21.032 73.352 21.488 73.704 22.064C74.072 22.64 74.256 23.368 74.256 24.248C74.256 25.144 74.008 25.976 73.512 26.744C73.032 27.496 72.288 28.104 71.28 28.568C70.272 29.016 69 29.24 67.464 29.24ZM77.3498 29V12.2H80.4698V29H77.3498ZM90.2218 29.24C88.9098 29.24 87.6538 29.056 86.4538 28.688C85.2538 28.304 84.3018 27.816 83.5978 27.224L84.6778 24.8C85.3498 25.328 86.1818 25.768 87.1738 26.12C88.1658 26.472 89.1818 26.648 90.2218 26.648C91.1018 26.648 91.8138 26.552 92.3578 26.36C92.9018 26.168 93.3018 25.912 93.5578 25.592C93.8138 25.256 93.9418 24.88 93.9418 24.464C93.9418 23.952 93.7578 23.544 93.3898 23.24C93.0218 22.92 92.5418 22.672 91.9498 22.496C91.3738 22.304 90.7258 22.128 90.0058 21.968C89.3018 21.808 88.5898 21.624 87.8698 21.416C87.1658 21.192 86.5178 20.912 85.9258 20.576C85.3498 20.224 84.8778 19.76 84.5098 19.184C84.1418 18.608 83.9578 17.872 83.9578 16.976C83.9578 16.064 84.1978 15.232 84.6778 14.48C85.1738 13.712 85.9178 13.104 86.9098 12.656C87.9178 12.192 89.1898 11.96 90.7258 11.96C91.7338 11.96 92.7338 12.088 93.7258 12.344C94.7178 12.6 95.5818 12.968 96.3178 13.448L95.3338 15.872C94.5818 15.424 93.8058 15.096 93.0058 14.888C92.2058 14.664 91.4378 14.552 90.7018 14.552C89.8378 14.552 89.1338 14.656 88.5898 14.864C88.0618 15.072 87.6698 15.344 87.4138 15.68C87.1738 16.016 87.0538 16.4 87.0538 16.832C87.0538 17.344 87.2298 17.76 87.5818 18.08C87.9498 18.384 88.4218 18.624 88.9978 18.8C89.5898 18.976 90.2458 19.152 90.9658 19.328C91.6858 19.488 92.3978 19.672 93.1018 19.88C93.8218 20.088 94.4698 20.36 95.0458 20.696C95.6378 21.032 96.1098 21.488 96.4618 22.064C96.8298 22.64 97.0138 23.368 97.0138 24.248C97.0138 25.144 96.7658 25.976 96.2698 26.744C95.7898 27.496 95.0458 28.104 94.0378 28.568C93.0298 29.016 91.7578 29.24 90.2218 29.24ZM103.281 29V14.84H97.7132V12.2H111.969V14.84H106.401V29H103.281ZM117.191 19.184H125.543V21.752H117.191V19.184ZM117.431 26.384H126.911V29H114.311V12.2H126.575V14.816H117.431V26.384ZM130.389 29V12.2H132.957L140.301 24.464H138.957L146.181 12.2H148.749L148.773 29H145.821L145.797 16.832H146.421L140.277 27.08H138.885L132.645 16.832H133.365V29H130.389ZM150.935 29L158.495 12.2H161.567L169.151 29H165.887L159.383 13.856H160.631L154.151 29H150.935ZM154.415 25.112L155.255 22.664H164.327L165.167 25.112H154.415ZM182.888 29L175.544 12.2H178.928L185.48 27.392H183.536L190.16 12.2H193.28L185.96 29H182.888ZM195.053 29V12.2H201.965C203.453 12.2 204.725 12.44 205.781 12.92C206.853 13.4 207.677 14.088 208.253 14.984C208.829 15.88 209.117 16.944 209.117 18.176C209.117 19.408 208.829 20.472 208.253 21.368C207.677 22.248 206.853 22.928 205.781 23.408C204.725 23.872 203.453 24.104 201.965 24.104H196.781L198.173 22.688V29H195.053ZM206.045 29L201.797 22.904H205.133L209.405 29H206.045ZM198.173 23.024L196.781 21.536H201.821C203.197 21.536 204.229 21.24 204.917 20.648C205.621 20.056 205.973 19.232 205.973 18.176C205.973 17.104 205.621 16.28 204.917 15.704C204.229 15.128 203.197 14.84 201.821 14.84H196.781L198.173 13.304V23.024ZM220.456 29.24C219.144 29.24 217.936 29.032 216.832 28.616C215.744 28.184 214.792 27.584 213.976 26.816C213.16 26.032 212.528 25.112 212.08 24.056C211.632 23 211.408 21.848 211.408 20.6C211.408 19.352 211.632 18.2 212.08 17.144C212.528 16.088 213.16 15.176 213.976 14.408C214.808 13.624 215.776 13.024 216.88 12.608C217.984 12.176 219.192 11.96 220.504 11.96C221.928 11.96 223.208 12.192 224.344 12.656C225.496 13.12 226.464 13.8 227.248 14.696L225.28 16.616C224.624 15.96 223.912 15.48 223.144 15.176C222.392 14.856 221.56 14.696 220.648 14.696C219.768 14.696 218.952 14.84 218.2 15.128C217.448 15.416 216.8 15.824 216.256 16.352C215.712 16.88 215.288 17.504 214.984 18.224C214.696 18.944 214.552 19.736 214.552 20.6C214.552 21.448 214.696 22.232 214.984 22.952C215.288 23.672 215.712 24.304 216.256 24.848C216.8 25.376 217.44 25.784 218.176 26.072C218.912 26.36 219.728 26.504 220.624 26.504C221.456 26.504 222.256 26.376 223.024 26.12C223.808 25.848 224.552 25.4 225.256 24.776L227.032 27.104C226.152 27.808 225.128 28.344 223.96 28.712C222.808 29.064 221.64 29.24 220.456 29.24ZM224.08 26.696V20.408H227.032V27.104L224.08 26.696Z" fill="white"/>
</svg>
